<?xml version="1.0" encoding="UTF-8"?><svg id="a" xmlns="http://www.w3.org/2000/svg" width="1184" height="248" viewBox="0 0 1184 248"><defs><style>.b{fill:#51626f;}.c{fill:#00a0af;}</style></defs><path class="c" d="M426,71c.07-5.55,4.18-56.26,19-49,14.55,7.06,5.95,51.98,4,63-2.88,16.26-7.23,33.29-14,49-6.56-20.46-9.22-42.19-9-63Zm-86,8c-.22-12.46-.25-59.96,19-57,13,2-.49,64.6-2,70-3.02,10.88-6.95,21.92-12,33-3.59-15.49-4.78-30.96-5-46Zm-63,41c-2,11-21.34,11.29-34,11,.87-6.34,2.86-12.38,5.95-17.84,7.56-13.33,30.79-10.38,28.05,6.84Zm233,59c-26.58,17-51.67,2.19-65-21,19.5-33.77,27.14-78.8,26-112-.52-15.26-4.64-39.48-23-43-19.95-3.89-32.12,15.87-37,32-11.67,37.96-4.26,84.65,11,121-2.53,3.74-5.05,7.63-8,11-17.59,20.46-39.32,19.24-53.79-3.22-2.65-4.11-4.18-9.25-6.21-13.78,4.76-8.42,8.48-16.43,12-25,10.53-25.57,17.71-53.22,18-81,.22-14.69-3.28-37.63-21-41-50.92-9.73-43.17,88.38-39,114,1.51,9.51,3.96,21.27,8,32-9.22,13.83-20.45,24.79-35,32-29.09,14.55-48.46-6.87-53-32,14.12,0,33.92,.8,44-10,10.29-11.01,10.78-26.11,3-39-17.14-28.37-53.36-10.69-63,13-2.03,5.12-4.21,11.32-5,17-15.12-4.04-24.87-16.59-32-32-2.3-5.05-6-5-9-5-3.97,0-8.2,3.75-8,9,1.01,24.06,1.61,54.59-12,75-14,21-27.41-4.67-31-18-1.94-7.13-1.17-12.53-2-20-1-9-2-18.33-2-27,0-5-3.89-9.5-9-9-4.83-.07-10,2-10,9,0,4.26-1,10-1,16,0,25.86-5.1,68.45-27,57-13.9-7.21-14.06-40.11-15-53-.79-11.89-1-24.02-1-36,0-9-13.11-13.72-17-5-6.34,14.32-24.01,19.61-38.05,21.44-11.95,1.56-7.95,20.56,5.05,18.56,9.92-1.53,20.71-4.52,30-10-.2,32.26,3.92,73.06,32,83,19.03,6.69,34.09-8.02,42-24,7.85,19.23,21.6,31.79,44,22,22.97-10.08,29.56-41.27,31-69,8.57,7.93,18.06,12.55,30,15,1.59,16.28,8.77,33.12,20,44,20.32,19.65,52.54,14.55,74,0,9.36-6.32,18.09-14.86,25-24,15.13,26.79,38.52,45.95,71,26,7.43-4.61,14.26-11.14,20.08-18.05,19.3,27.15,53.58,40.72,85.92,20.05,10.38-6.64,1.36-23.62-9-17Z"/><g><path class="b" d="M603,97c5,0,16.84,1.45,23,6,6.16,4.55,10,13,11,16,0,0,4.73-7.29,9-11,4.27-3.71,8.85-5.84,14.31-8.08,5.46-2.24,12.69-2.92,16.69-2.92,7,0,15.61,1.22,21,5,5.39,3.78,9.55,8.63,12,15,2.45,6.37,4,14.02,4,22v59c0,5-2,7-6,7s-7-2-7-7v-59c0-5.74-1.18-10.24-3-15-1.82-4.76-4.08-8.2-8-11-3.92-2.8-9.42-5-16-5-5.74,0-10.75,1.2-16,4-5.25,2.8-9.71,7.24-13,12-3.29,4.76-5,9.26-5,15v59c0,5-3,7-7,7-3,0-6-2-6-7v-59c0-5.74-.32-10.38-2-15-1.68-4.62-4.22-9.27-8-12-3.78-2.73-9.56-4-16-4-5.74,0-10.89,1.27-16,4-5.11,2.73-8.85,7.38-12,12s-5,9.26-5,15v59c0,5-3,7-7,7-3,0-6-2-6-7V104c0-4,4.58-5.97,6.4-5.97s6.6,1.97,6.6,5.97v13l1-2c1-2,2.48-3.95,6.26-7.31,3.78-3.36,7.91-5.66,12.74-7.69,4.83-2.03,12-3,15-3Z"/><path class="b" d="M842.38,150.95c0,10.64-2.31,20.2-6.93,28.67-4.62,8.47-10.92,15.12-18.9,19.95-7.98,4.83-17.08,7.24-27.3,7.24s-18.94-2.42-26.99-7.24c-8.05-4.83-14.42-11.48-19.11-19.95-4.69-8.47-7.04-18.02-7.04-28.67s2.34-20.37,7.04-28.77c4.69-8.4,11.06-15.05,19.11-19.95,8.05-4.9,17.04-7.35,26.99-7.35s19.32,2.45,27.3,7.35c7.98,4.9,14.28,11.55,18.9,19.95s6.93,17.99,6.93,28.77Zm-12.6,0c0-8.54-1.75-16.13-5.25-22.79-3.5-6.65-8.29-11.9-14.38-15.75-6.09-3.85-13.06-5.78-20.9-5.78s-14.42,1.93-20.58,5.78c-6.16,3.85-11.02,9.1-14.59,15.75-3.57,6.65-5.36,14.25-5.36,22.79s1.79,16.1,5.36,22.68c3.57,6.58,8.43,11.8,14.59,15.65,6.16,3.85,13.02,5.77,20.58,5.77s14.8-1.92,20.9-5.77c6.09-3.85,10.88-9.06,14.38-15.65,3.5-6.58,5.25-14.14,5.25-22.68Z"/><path class="b" d="M915.67,94.88c9.24,0,16.8,1.41,22.33,5.12,5.53,3.71,9.55,8.63,12,15,2.45,6.37,4,14.3,4,22v61c0,5-3,7-7,7-3,0-6-3-6-7v-61c0-5.6-1.18-10.38-3-15-1.82-4.62-4.87-8.2-9-11-4.13-2.8-8.28-4-15-4-6.02,0-12.79,1.04-18.18,3.84-5.39,2.8-9.77,6.51-13.12,11.13-3.36,4.62-4.7,9.43-4.7,15.03v61c0,5-3,7-7,7-3,0-6-3-6-7V104c0-3,4.54-5.97,6.36-5.97s6.64,1.97,6.64,5.97v12s2-4,4-6c1-1,.94-1.71,5-5,4.06-3.29,8.03-5.11,13-7,4.97-1.89,10.63-3.12,15.67-3.12Z"/><path class="b" d="M1031,207c-10.78,0-20.74-2.38-29-7-8.26-4.62-14.38-10.74-19-19-4.62-8.26-8-18.94-8-30,0-11.9,3.31-21.6,8-30,4.69-8.4,10.51-14.45,18-19,7.49-4.55,15.6-7,24-7,6.16,0,12.19,.83,18,3,5.81,2.17,11.45,5.73,16,10,4.55,4.27,7.27,7.84,10,14,2.73,6.16,4.72,14.88,5,23-.14,1.68-.74,2.81-2,4-1.26,1.19-3.32,2-5,2h-81v-11h75v-2c-.56-6.58-3.36-12.38-7-17-3.64-4.62-6.82-7.62-12-10-5.18-2.38-11.4-4-17-4-4.2,0-9.59,1.32-14,3-4.41,1.68-7.43,4.43-11,8-3.57,3.57-5.76,6.47-8,12-2.24,5.53-4,14.44-4,22,0,8.26,1.64,14.28,5,21,3.36,6.72,8.63,12.08,15,16,6.37,3.92,14.18,6,23,6,4.9,0,9.08-.6,13-2,3.92-1.4,7.06-3.69,10-6,2.94-2.31,5.04-4.48,7-7,1.54-1.26,3.46-2,5-2,1.4,0,2.95,.88,4,2,1.05,1.12,1,2.6,1,4,0,1.68-.6,2.74-2,4-4.2,5.04-9.28,9.29-16,13-6.72,3.71-14.02,6-22,6Z"/><path class="b" d="M1175.64,95.51c1.82,0,6.36,1.49,6.36,6.49v92c0,11.34-2.52,21.23-7,29-4.48,7.77-10.44,14.01-18,18-7.56,3.99-16.34,6-26,6-6.02,0-10.89-.67-16-2-5.11-1.33-9.78-2.9-13-5-1.68-.98-3.16-2.6-4-4-.84-1.4-.76-4.49,0-6,1-2,1.53-2.37,3-3,1.47-.63,3.46,.3,5,1,2.38,1.26,6.52,3.18,11,5,4.48,1.82,8.26,2,14,2,7.7,0,15.33-1.78,21-5,5.67-3.22,9.92-7.91,13-14,3.08-6.09,5-13.6,5-22v-8c-2.1,4.34-4.15,6.64-8,10-3.85,3.36-8.03,6.11-13,8-4.97,1.89-10.4,3-16,3-8.4,0-15.47-1.57-21-5-5.53-3.43-9.34-7.98-12-14-2.66-6.02-4-13.88-4-22V102c0-5,4.04-7,6-7,1.82,0,6,2,6,7v63c0,9.8,2.73,16.68,7,22,4.27,5.32,11.34,8,21,8,6.02,0,10.96-1.13,16-4,5.04-2.87,8.78-6.31,12-11,3.22-4.69,6-10.68,6-16v-62c0-5,3.82-6.49,5.64-6.49Z"/></g></svg>